<svg width="1200" height="1200" viewBox="0 0 1200 1200" fill="none" xmlns="http://www.w3.org/2000/svg">
<g clip-path="url(#clip0_6303_1449)">
<rect width="1200" height="1200" fill="black"/>
<rect width="1200" height="1200" fill="url(#paint0_linear_6303_1449)"/>
<rect width="1200" height="1200" fill="url(#paint1_radial_6303_1449)"/>
<ellipse opacity="0.25" cx="600.504" cy="605.499" rx="614.336" ry="805.398" fill="url(#paint2_linear_6303_1449)"/>
<ellipse opacity="0.25" cx="600.506" cy="605.505" rx="379.69" ry="497.775" fill="url(#paint3_linear_6303_1449)"/>
<ellipse opacity="0.25" cx="600.501" cy="605.502" rx="234.665" ry="307.647" fill="url(#paint4_linear_6303_1449)"/>
<g filter="url(#filter0_d_6303_1449)">
<rect opacity="0.5" x="284.949" y="456.41" width="695.244" height="366.469" fill="url(#paint5_linear_6303_1449)"/>
<rect opacity="0.7" x="252.91" y="422.234" width="695.244" height="366.469" fill="url(#paint6_linear_6303_1449)"/>
<rect x="219.805" y="389.129" width="695.244" height="366.469" fill="url(#paint7_linear_6303_1449)"/>
<ellipse opacity="0.7" cx="568.86" cy="572.732" rx="110.97" ry="145.482" fill="url(#paint8_linear_6303_1449)"/>
<path d="M575.853 479.516H562.349V501.167C537.561 502.819 521.283 516.214 521.283 536.581C521.283 553.829 532.382 567.224 562.904 573.462V619.335C547.366 617.683 536.822 610.16 528.497 600.068L514.809 611.445C526.462 626.858 544.591 633.83 562.349 635.115V659.886H575.853V635.298C605.265 633.28 619.879 617.316 619.879 596.765C619.879 576.949 609.52 565.756 575.298 558.783V517.131C591.391 519.333 599.901 528.14 603.785 534.012L618.584 523.737C610.26 513.278 596.201 503.553 575.853 501.351V479.516ZM562.904 516.764V556.214C542.926 551.627 540.521 545.572 540.521 535.847C540.521 525.021 548.29 518.048 562.904 516.764ZM575.298 575.848C598.236 580.802 600.455 588.508 600.455 597.683C600.455 609.793 591.391 618.05 575.298 619.518V575.848Z" fill="url(#paint9_linear_6303_1449)"/>
</g>
</g>
<defs>
<filter id="filter0_d_6303_1449" x="195.805" y="377.129" width="832.387" height="505.75" filterUnits="userSpaceOnUse" color-interpolation-filters="sRGB">
<feFlood flood-opacity="0" result="BackgroundImageFix"/>
<feColorMatrix in="SourceAlpha" type="matrix" values="0 0 0 0 0 0 0 0 0 0 0 0 0 0 0 0 0 0 127 0" result="hardAlpha"/>
<feOffset dx="12" dy="24"/>
<feGaussianBlur stdDeviation="18"/>
<feColorMatrix type="matrix" values="0 0 0 0 0 0 0 0 0 0 0 0 0 0 0 0 0 0 0.2 0"/>
<feBlend mode="multiply" in2="BackgroundImageFix" result="effect1_dropShadow_6303_1449"/>
<feBlend mode="normal" in="SourceGraphic" in2="effect1_dropShadow_6303_1449" result="shape"/>
</filter>
<linearGradient id="paint0_linear_6303_1449" x1="600" y1="0" x2="600" y2="1200" gradientUnits="userSpaceOnUse">
<stop stop-color="#8053FF"/>
<stop offset="1" stop-color="#422986" stop-opacity="0.5"/>
</linearGradient>
<radialGradient id="paint1_radial_6303_1449" cx="0" cy="0" r="1" gradientUnits="userSpaceOnUse" gradientTransform="translate(-79.5 -200.5) rotate(56.3713) scale(1423.78 1094.97)">
<stop stop-color="#009CE2"/>
<stop offset="1" stop-color="#009CE2" stop-opacity="0"/>
</radialGradient>
<linearGradient id="paint2_linear_6303_1449" x1="815.994" y1="233.777" x2="-40.7275" y2="924.26" gradientUnits="userSpaceOnUse">
<stop stop-color="#422986"/>
<stop offset="1" stop-color="#8053FF" stop-opacity="0.8"/>
</linearGradient>
<linearGradient id="paint3_linear_6303_1449" x1="733.689" y1="375.763" x2="204.194" y2="802.515" gradientUnits="userSpaceOnUse">
<stop stop-color="#422986"/>
<stop offset="1" stop-color="#8053FF" stop-opacity="0.8"/>
</linearGradient>
<linearGradient id="paint4_linear_6303_1449" x1="682.814" y1="463.512" x2="355.562" y2="727.263" gradientUnits="userSpaceOnUse">
<stop stop-color="#422986"/>
<stop offset="1" stop-color="#8053FF" stop-opacity="0.8"/>
</linearGradient>
<linearGradient id="paint5_linear_6303_1449" x1="447.703" y1="456.41" x2="757.214" y2="808.715" gradientUnits="userSpaceOnUse">
<stop stop-color="#009CE2"/>
<stop offset="1" stop-color="#916AFF" stop-opacity="0.25"/>
</linearGradient>
<linearGradient id="paint6_linear_6303_1449" x1="510.471" y1="422.234" x2="698.775" y2="788.703" gradientUnits="userSpaceOnUse">
<stop stop-color="#009CE2"/>
<stop offset="1" stop-color="#916AFF" stop-opacity="0.2"/>
</linearGradient>
<linearGradient id="paint7_linear_6303_1449" x1="465.018" y1="389.129" x2="659.815" y2="755.598" gradientUnits="userSpaceOnUse">
<stop stop-color="#916AFF"/>
<stop offset="1" stop-color="#916AFF" stop-opacity="0.2"/>
</linearGradient>
<linearGradient id="paint8_linear_6303_1449" x1="457.891" y1="440.765" x2="614.363" y2="668.028" gradientUnits="userSpaceOnUse">
<stop stop-color="#009CE2" stop-opacity="0.2"/>
<stop offset="1" stop-color="#01A5EF"/>
</linearGradient>
<linearGradient id="paint9_linear_6303_1449" x1="536.444" y1="494.876" x2="619.879" y2="659.887" gradientUnits="userSpaceOnUse">
<stop stop-color="#422986" stop-opacity="0.7"/>
<stop offset="0.977246" stop-color="#8053FF" stop-opacity="0.3"/>
</linearGradient>
<clipPath id="clip0_6303_1449">
<rect width="1200" height="1200" fill="white"/>
</clipPath>
</defs>
</svg>
